/* XPM */
static char * recurrence_logo_xpm[] = {
"24 24 6 1",
" 	c None",
".	c #CC6836",
"+	c #23B9DC",
"@	c #A4CEFE",
"#	c #FFFFFF",
"$	c #C6C6C6",
"                        ",
"                        ",
"    ..................  ",
"   ..++++++++++++++++.  ",
"  ..+++++++++++++++++.  ",
"  .++++++++++++++++++.  ",
"  .+@++++++++++++++++.  ",
"  .+@++++++.....+@+++.  ",
"  .+@++++++......+++..  ",
"  .+@++++++...........  ",
"  .+@++++++......###..  ",
"  .+@++++++.....#####.  ",
"  .+@++++++.....#$###.  ",
"  .+@++++++.....#$$##.  ",
"  .+@++++++......###..  ",
"  .+@++++++...........  ",
"  .+@++++++.......#...  ",
"  .+@++++++......###..  ",
"  .+@++++++.......#...  ",
"  .+@++++++...........  ",
"  .++++++++.....#....   ",
"  ..................    ",
"                        ",
"                        "};
