/* XPM */
static char * tbicon_alert_xpm[] = {
"24 24 8 1",
" 	c None",
".	c #CC6836",
"+	c #23B9DC",
"@	c #A4CEFE",
"#	c #FFFFFF",
"$	c #C6C6C6",
"%	c #CE1717",
"&	c #010101",
"                        ",
"                        ",
"    ..................  ",
"   ..++++++++++++++++.  ",
"  ..+++++++++++++++++.  ",
"  .++++++++++++++++++.  ",
"  .+@++++++++++++++++.  ",
"  .+@++++++.....+@+++.  ",
"  .+@++++++......+++..  ",
"  .+@++++++...........  ",
"  .+@++++++......###..  ",
"  .+@++++++.....#####.  ",
"  .+@++++++.....#$###.  ",
"  %%%%%%+++.....#$$##.  ",
" %%%##%%%++......###..  ",
"%%%%##%%%%+...........  ",
"%%%%##%%%%&.......#...  ",
"%%%%##%%%%&......###..  ",
"%%%%##%%%%&.......#...  ",
"%%%%%%%%%%&...........  ",
"%%%%##%%%%&.....#....   ",
" %%%##%%%&..........    ",
"  %%%%%%&               ",
"   &&&&&                "};
